<?xml version="1.0" encoding="utf-8"?>
<!-- Generator: Adobe Illustrator 26.0.1, SVG Export Plug-In . SVG Version: 6.00 Build 0)  -->
<svg version="1.1" id="Layer_1" xmlns="http://www.w3.org/2000/svg" xmlns:xlink="http://www.w3.org/1999/xlink" x="0px" y="0px"
	 viewBox="0 0 2954.5 1269.25" style="enable-background:new 0 0 2954.5 1269.25;" xml:space="preserve">
<style type="text/css">
	.st0{fill:#15789F;}
	.st1{fill:none;}
	.st2{fill:#2C3941;}
</style>
<g>
	<path class="st0" d="M757.98,614.9H385.16c-12.44,0-22.52-10.09-22.52-22.52s10.09-22.52,22.52-22.52h372.82
		c12.44,0,22.52,10.09,22.52,22.52S770.41,614.9,757.98,614.9z"/>
</g>
<g>
	<path class="st0" d="M674.65,760.18H390.59c-12.44,0-22.52-10.09-22.52-22.52c0-12.44,10.09-22.52,22.52-22.52h284.07
		c12.44,0,22.52,10.09,22.52,22.52C697.18,750.1,687.09,760.18,674.65,760.18z"/>
</g>
<g>
	<path class="st0" d="M473.82,905.47h-83.24c-12.44,0-22.52-10.09-22.52-22.52s10.09-22.52,22.52-22.52h83.24
		c12.44,0,22.52,10.09,22.52,22.52S486.26,905.47,473.82,905.47z"/>
</g>
<path class="st1" d="M296.53,243.37c0,17.49-14.25,31.74-31.74,31.74H82.61v646.4h144.51V425.68c0-7.86,3.03-15.23,8.56-20.8
	l209.83-211.34c5.53-5.53,13.14-8.68,20.93-8.68h232.1V61.18H296.53V243.37z"/>
<path class="st0" d="M933.14,867.94v-653.6c0-16.26-13.23-29.48-29.48-29.48H743.58V47.06c0-17.04-13.84-30.92-30.88-30.92H277.49
	c-8.15,0-16.13,3.32-21.91,9.13L46.57,235.75c-5.81,5.86-9.01,13.6-9.01,21.79v678.09c0,17.04,13.88,30.92,30.92,30.92h158.64
	v139.19c0,16.26,13.23,29.48,29.48,29.48h64.28v-22.86c0-9.04,4.29-17.05,10.93-22.18h-59.65V443.82h182.19
	c17.49,0,31.74-14.25,31.74-31.74V229.9H888.1v618.06h18.19C918.97,847.96,929.68,856.39,933.14,867.94z M251.49,93.33v136.73H115.7
	L251.49,93.33z M441.05,398.77H305.21L441.05,262V398.77z M698.54,184.85h-232.1c-7.78,0-15.4,3.15-20.93,8.68L235.68,404.88
	c-5.53,5.57-8.56,12.94-8.56,20.8V921.5H82.61v-646.4H264.8c17.49,0,31.74-14.25,31.74-31.74V61.18h402.01V184.85z"/>
<path class="st2" d="M934.33,876.01V988.7c0,15.48-12.57,28.05-28.05,28.05H793.58c-15.48,0-28.05-12.57-28.05-28.05V876.01
	c0-15.48,12.57-28.05,28.05-28.05h112.69c12.69,0,23.38,8.44,26.86,19.98C933.92,870.48,934.33,873.18,934.33,876.01z"/>
<path class="st2" d="M489.65,1112.37v112.69c0,15.48-12.53,28.05-28.01,28.05H348.91c-15.48,0-28.01-12.57-28.01-28.05v-112.69
	c0-9.05,4.26-17.08,10.93-22.19c4.71-3.64,10.65-5.86,17.08-5.86h112.74C477.12,1084.32,489.65,1096.85,489.65,1112.37z"/>
<path class="st2" d="M711.98,1112.37v112.69c0,15.48-12.53,28.05-28.01,28.05H571.23c-15.48,0-28.01-12.57-28.01-28.05v-112.69
	c0-9.05,4.26-17.08,10.93-22.19c4.71-3.64,10.65-5.86,17.08-5.86h112.74C699.45,1084.32,711.98,1096.85,711.98,1112.37z"/>
<path class="st2" d="M711.98,876.01V988.7c0,15.48-12.53,28.05-28.01,28.05H571.23c-15.48,0-28.01-12.57-28.01-28.05V876.01
	c0-9.05,4.26-17.08,10.93-22.19c4.71-3.64,10.65-5.86,17.08-5.86h112.74C699.45,847.95,711.98,860.49,711.98,876.01z"/>
<path class="st2" d="M934.31,1112.37v112.69c0,15.48-12.53,28.05-28.01,28.05H793.56c-15.48,0-28.01-12.57-28.01-28.05v-112.69
	c0-9.05,4.26-17.08,10.93-22.19c4.71-3.64,10.65-5.86,17.08-5.86H906.3C921.78,1084.32,934.31,1096.85,934.31,1112.37z"/>
<g>
	<path class="st0" d="M1074.56,720.78V426.65h87.53c27.87,0,52.56,6.3,74.05,18.91s38.29,29.91,50.41,51.89
		c12.11,21.99,18.17,47.42,18.17,76.26c0,28.57-6.06,53.93-18.17,76.05c-12.11,22.13-28.92,39.5-50.41,52.1
		s-46.18,18.91-74.05,18.91H1074.56z M1128.09,666.99h34c12.5,0,24.09-2.38,34.78-7.14c10.68-4.76,19.99-11.34,27.94-19.75
		c7.94-8.4,14.13-18.28,18.56-29.62c4.43-11.34,6.64-23.6,6.64-36.77c0-13.16-2.22-25.42-6.64-36.77
		c-4.43-11.34-10.62-21.22-18.56-29.62c-7.95-8.4-17.26-14.98-27.94-19.75c-10.68-4.76-22.27-7.14-34.78-7.14h-34V666.99z"/>
	<path class="st0" d="M1432.48,725.82c-19.8,0-37.45-4.69-52.95-14.08c-15.5-9.38-27.62-22.33-36.34-38.87
		c-8.73-16.52-13.09-35.57-13.09-57.14c0-21.57,4.3-40.61,12.89-57.15c8.6-16.53,20.58-29.48,35.95-38.87
		c15.37-9.38,32.95-14.08,52.75-14.08c20.06,0,37.77,4.69,53.14,14.08c15.37,9.39,27.35,22.34,35.95,38.87
		c8.6,16.53,12.89,35.58,12.89,57.15c0,21.57-4.3,40.62-12.89,57.14c-8.6,16.53-20.51,29.49-35.75,38.87
		C1469.8,721.13,1452.28,725.82,1432.48,725.82z M1432.48,674.56c9.63,0,18.1-2.52,25.4-7.56c7.29-5.04,12.96-11.98,17-20.8
		c4.04-8.82,6.06-18.97,6.06-30.46c0-11.48-2.09-21.64-6.25-30.46c-4.17-8.82-9.96-15.76-17.39-20.8
		c-7.42-5.04-15.96-7.56-25.59-7.56c-9.38,0-17.78,2.52-25.2,7.56c-7.42,5.04-13.22,11.97-17.39,20.8
		c-4.17,8.82-6.25,18.98-6.25,30.46c0,11.49,2.08,21.64,6.25,30.46c4.16,8.82,10.03,15.76,17.58,20.8
		C1414.25,672.04,1422.84,674.56,1432.48,674.56z"/>
	<path class="st0" d="M1661.85,725.82c-20.32,0-38.43-4.69-54.31-14.08c-15.89-9.38-28.27-22.41-37.12-39.08
		c-8.86-16.66-13.29-35.64-13.29-56.93c0-21.57,4.43-40.61,13.29-57.15c8.85-16.53,21.1-29.48,36.73-38.87
		c15.63-9.38,33.6-14.08,53.92-14.08c19.54,0,37.38,5.19,53.53,15.55c16.15,10.37,27.87,25.36,35.17,44.96l-48.45,18.49
		c-3.65-8.12-9.32-14.63-17-19.54c-7.69-4.9-16.22-7.35-25.59-7.35c-9.64,0-18.11,2.46-25.4,7.35c-7.3,4.9-13.03,11.7-17.19,20.38
		c-4.17,8.69-6.25,18.77-6.25,30.25c0,11.49,2.08,21.5,6.25,30.04c4.16,8.55,10.03,15.34,17.58,20.38
		c7.55,5.04,16.15,7.56,25.79,7.56c9.38,0,17.91-2.66,25.59-7.98c7.68-5.32,13.35-12.32,17-21.01l48.84,18.49
		c-7.56,19.89-19.34,35.3-35.36,46.22S1681.65,725.82,1661.85,725.82z"/>
	<path class="st0" d="M1850.58,725.82c-15.63,0-28.86-3.36-39.66-10.08c-10.81-6.72-19.09-17.16-24.81-31.3
		c-5.73-14.14-8.6-32.42-8.6-54.83V510.68h51.58v107.57c0,14.01,1.5,25,4.49,32.99c2.99,7.98,7.29,13.73,12.89,17.23
		c5.6,3.51,11.92,5.25,18.95,5.25c13.54,0.28,23.84-4.13,30.87-13.24c7.03-9.1,10.55-22.33,10.55-39.71V510.68h51.58v210.09h-48.45
		l-1.96-28.57c-6.51,10.65-14.65,18.91-24.42,24.79C1873.83,722.88,1862.82,725.82,1850.58,725.82z"/>
	<path class="st0" d="M2002.97,720.78V510.68h48.45l2.34,27.31c5.99-10.64,13.68-18.7,23.05-24.16c9.38-5.46,19.79-8.19,31.26-8.19
		c15.89,0,29.24,3.64,40.05,10.92c10.81,7.29,18.69,18.49,23.64,33.62c5.73-14.29,13.8-25.28,24.23-32.99
		c10.42-7.7,22.53-11.55,36.34-11.55c22.92,0,40.38,7.77,52.36,23.32c11.98,15.55,17.97,39.43,17.97,71.64v120.17h-51.58V613.21
		c0-14.29-1.44-25.35-4.3-33.19c-2.87-7.84-6.78-13.51-11.72-17.02c-4.95-3.5-10.81-5.25-17.58-5.25
		c-12.5-0.28-22.14,4.06-28.92,13.03c-6.78,8.97-10.16,22.27-10.16,39.92v110.09h-51.58V613.21c0-14.29-1.37-25.35-4.1-33.19
		c-2.74-7.84-6.64-13.51-11.72-17.02c-5.08-3.5-11.01-5.25-17.78-5.25c-12.5-0.28-22.08,4.06-28.72,13.03
		c-6.64,8.97-9.96,22.27-9.96,39.92v110.09H2002.97z"/>
	<path class="st0" d="M2432.02,725.82c-19.28,0-36.34-4.69-51.19-14.08c-14.85-9.38-26.51-22.33-34.97-38.87
		c-8.47-16.52-12.7-35.57-12.7-57.14c0-21.57,4.36-40.61,13.09-57.15c8.72-16.53,20.71-29.48,35.95-38.87
		c15.24-9.38,32.76-14.08,52.56-14.08c17.19,0,33.02,4.83,47.48,14.5c14.46,9.66,26.05,23.81,34.78,42.44
		c8.73,18.63,13.09,41.25,13.09,67.86h-143.02c1.3,14.01,6.9,25.15,16.8,33.41c9.9,8.27,21.1,12.4,33.6,12.4
		c10.68,0,19.4-2.45,26.18-7.35c6.77-4.9,11.98-11.27,15.63-19.12l46.11,19.33c-5.47,11.77-12.57,21.92-21.3,30.46
		c-8.73,8.55-19.09,15.06-31.06,19.54C2461.06,723.57,2447.39,725.82,2432.02,725.82z M2389.82,589.26h84.4
		c-0.78-8.68-3.39-15.69-7.81-21.01c-4.43-5.32-9.64-9.24-15.63-11.76c-6-2.52-11.86-3.78-17.58-3.78c-5.47,0-11.4,1.2-17.78,3.57
		c-6.39,2.38-11.98,6.24-16.8,11.56C2393.79,573.15,2390.86,580.3,2389.82,589.26z"/>
	<path class="st0" d="M2560.18,720.78V510.68h48.45l2.34,28.57c6.25-10.92,14.26-19.26,24.03-25c9.77-5.74,20.91-8.61,33.41-8.61
		c15.37,0,28.52,3.36,39.47,10.08c10.94,6.72,19.28,17.16,25.01,31.3c5.73,14.15,8.46,32.43,8.21,54.83v118.91h-51.58V613.21
		c0-14.29-1.5-25.35-4.49-33.19c-3-7.84-7.23-13.51-12.7-17.02c-5.47-3.5-11.86-5.25-19.15-5.25c-13.29-0.28-23.51,4.06-30.67,13.03
		c-7.17,8.97-10.75,22.27-10.75,39.92v110.09H2560.18z"/>
	<path class="st0" d="M2862.62,725.82c-21.62,0-37.97-5.74-49.04-17.23c-11.08-11.48-16.61-27.87-16.61-49.16V557.75h-31.65v-47.06
		h31.65v-65.55h51.58v65.55h48.84v47.06h-48.84v89.5c0,8.97,1.82,15.76,5.47,20.38c3.64,4.62,8.99,6.93,16.02,6.93
		c2.6,0,5.47-0.63,8.6-1.89s6.38-3.15,9.77-5.67l17.97,41.6c-6.25,5.04-13.22,9.18-20.91,12.4
		C2877.79,724.21,2870.17,725.82,2862.62,725.82z"/>
</g>
<g>
	<path class="st2" d="M1074.35,1111.77V817.64h57.82l79.16,126.9l79.16-126.9h57.43v294.13h-52.77V907.56l-83.82,133.62
		l-83.82-133.2v203.79H1074.35z"/>
	<path class="st2" d="M1462.38,1116.81c-23.28,0-41.33-5.6-54.13-16.81c-12.81-11.2-19.21-27.03-19.21-47.48
		c0-22.41,6.92-39.29,20.76-50.63c13.84-11.34,33.3-17.02,58.4-17.02h45.79c-1.81-12.88-5.57-22.75-11.25-29.62
		c-5.69-6.86-13.84-10.29-24.45-10.29c-8.28,0-15.78,1.96-22.51,5.88c-6.73,3.93-12.42,9.95-17.07,18.07l-45.01-16.81
		c3.62-8.96,8.92-17.71,15.91-26.26c6.98-8.54,16.1-15.55,27.36-21.01c11.25-5.46,25.03-8.19,41.33-8.19
		c19.66,0,36.02,4.06,49.09,12.18c13.06,8.13,22.76,19.54,29.1,34.25c6.34,14.71,9.37,32.14,9.12,52.31l-1.16,116.39h-47.73
		l-0.78-24.37c-4.92,9.53-11.84,16.81-20.76,21.85C1486.25,1114.29,1475.32,1116.81,1462.38,1116.81z M1470.92,1070.59
		c8.28,0,15.78-2.1,22.51-6.3c6.72-4.2,12.03-9.66,15.91-16.39s5.82-13.72,5.82-21.01v-0.84h-29.1c-16.82,0-28.46,2.17-34.92,6.51
		c-6.47,4.35-9.7,10.44-9.7,18.28c0,6.17,2.58,11,7.76,14.5C1454.36,1068.84,1461.61,1070.59,1470.92,1070.59z"/>
	<path class="st2" d="M1686.28,1116.81c-21.48,0-37.71-5.74-48.7-17.23c-11-11.48-16.49-27.87-16.49-49.16V948.73h-31.43v-47.06
		h31.43v-65.55h51.22v65.55h48.5v47.06h-48.5v89.5c0,8.97,1.81,15.76,5.43,20.38c3.62,4.62,8.93,6.93,15.91,6.93
		c2.58,0,5.43-0.63,8.54-1.89c3.1-1.26,6.34-3.15,9.7-5.67l17.85,41.6c-6.21,5.04-13.13,9.18-20.76,12.4
		C1701.34,1115.19,1693.78,1116.81,1686.28,1116.81z"/>
	<path class="st2" d="M1762.33,1111.77V901.67h51.22v38.66c8.02-13.16,18.17-23.04,30.46-29.62c12.28-6.58,25.03-9.88,38.22-9.88
		v53.78c-11.9,0-23.09,1.54-33.57,4.62c-10.48,3.09-18.95,8.13-25.42,15.13c-6.47,7-9.7,15.97-9.7,26.89v110.51H1762.33z"/>
	<path class="st2" d="M1938.11,867.64c-7.76,0-14.62-3.15-20.57-9.45c-5.95-6.3-8.92-13.79-8.92-22.48c0-8.68,2.97-16.18,8.92-22.48
		c5.95-6.3,12.81-9.45,20.57-9.45c8.02,0,14.94,3.15,20.76,9.45s8.73,13.8,8.73,22.48c0,8.69-2.91,16.18-8.73,22.48
		S1946.13,867.64,1938.11,867.64z M1912.5,1111.77V901.67h51.22v210.09H1912.5z"/>
	<path class="st2" d="M1992.82,1111.77l72.17-108.83l-67.13-101.26h60.53l34.92,56.3l34.54-56.3h60.53l-66.74,101.68l71.4,108.41
		h-60.92l-38.8-63.45l-39.19,63.45H1992.82z"/>
</g>
</svg>
